<svg width="41" height="41" viewBox="0 0 41 41" fill="none" xmlns="http://www.w3.org/2000/svg">
<g id="baseline-hd-24px">
<path id="Vector" d="M31.8704 5.63599H8.387C6.5251 5.63599 5.03223 7.12175 5.03223 8.93767V32.0495C5.03223 33.8654 6.5251 35.3512 8.387 35.3512H31.8704C33.7155 35.3512 35.2252 33.8654 35.2252 32.0495V8.93767C35.2252 7.12175 33.7155 5.63599 31.8704 5.63599ZM18.4513 25.4461H15.9352V22.1444H12.5805V25.4461H10.0644V15.541H12.5805V19.6682H15.9352V15.541H18.4513V25.4461ZM21.8061 15.541H28.5156C29.4382 15.541 30.193 16.2839 30.193 17.1919V23.7953C30.193 24.7032 29.4382 25.4461 28.5156 25.4461H21.8061V15.541ZM24.3222 22.9698H27.6769V18.0173H24.3222V22.9698Z" fill="white"/>
</g>
</svg>
